<svg width="80" height="81" viewBox="0 0 80 81" fill="none" xmlns="http://www.w3.org/2000/svg">
<path d="M40.0391 80.0074C18.0199 80.0408 0.0446861 62.1028 8.27104e-05 40.0613C-0.0445207 18.0123 17.9567 -0.0111457 40.0056 5.17136e-06C62.0434 0.011156 79.9889 17.9529 80 39.9907C80.0112 62.0173 62.0732 79.9776 40.0354 80.0111L40.0391 80.0074ZM39.9647 74.4691C58.9583 74.4914 74.4134 59.1255 74.4655 40.1691C74.5138 21.0194 59.1479 5.55685 40.0428 5.53454C21.012 5.51224 5.56807 20.9041 5.54577 39.9201C5.51975 59.0103 20.9005 74.4468 39.9684 74.4691H39.9647Z" fill="#13AE67"/>
<path d="M32.4341 58.7687C31.4863 58.7464 30.7503 58.3376 30.1667 57.6053C26.7955 53.394 23.4205 49.1901 20.0455 44.9825C19.369 44.1425 18.6777 43.3136 18.0346 42.4476C17.0645 41.1429 17.2466 39.5223 18.4361 38.5745C19.6701 37.5895 21.3055 37.7754 22.3574 39.0763C25.5317 43.0051 28.6874 46.9525 31.8505 50.8925C32.4936 51.6954 32.4936 51.6991 33.1849 50.8925C41.2916 41.4254 49.3982 31.9621 57.5012 22.495C58.646 21.1606 60.0622 20.8558 61.3371 21.6773C62.7309 22.5768 63.0432 24.4241 61.9355 25.7585C59.9209 28.1819 57.8543 30.5608 55.8026 32.9545C48.8035 41.1244 41.8008 49.2942 34.8092 57.4715C34.1699 58.2186 33.4525 58.7501 32.4378 58.765L32.4341 58.7687Z" fill="#13AE67"/>
</svg>
